<svg xmlns="http://www.w3.org/2000/svg" xml:space="preserve" width="2000" height="455" viewBox="0 0 2000 455" data-version="1" data-id="lg_Wz1T9kgxwpZZywoe0M"><g id="outer-wrapper" data-padding="20" transform="matrix(1,0,0,1,0,0)"><g id="inner-wrapper" transform="matrix(0.964349376114082,0,0,0.964349376114082,10,8.11051693404633)"><rect width="406.625" height="168.366" x="250.74466734978182" y="-209.36778260869568" fill="#833ea1" rx="0" ry="0" transform="translate(400 357.7)scale(1.38)"></rect><rect width="506.324" height="133.34" x="373.43620094269875" y="-239.425" fill="none" rx="0" ry="0" transform="translate(404.42 560.99)"></rect><path fill="#fff" d="M795.4082009426987 424.80499999999995H784.7882009426987L789.5082009426987 342.2049999999999H802.4882009426988L821.7182009426987 398.8449999999999H822.1882009426987L841.4282009426987 342.2049999999999H854.4082009426987L859.1282009426986 424.80499999999995H848.5082009426987L844.9682009426987 363.44499999999994H844.3782009426986L827.2682009426987 414.18499999999995H816.6482009426986L799.5382009426987 363.44499999999994H798.9482009426987ZM896.8882009426987 425.9849999999999Q888.9782009426988 425.9849999999999 883.2582009426987 422.2649999999999T874.5282009426987 409.28499999999985T871.5182009426987 383.5049999999999T874.5282009426987 357.7149999999999Q877.5382009426987 348.4549999999999 883.2582009426987 344.7349999999999Q888.9782009426988 341.02499999999986 896.8882009426987 341.02499999999986Q904.9082009426987 341.02499999999986 910.5782009426987 344.7349999999999Q916.2382009426988 348.4549999999999 919.2482009426988 357.7149999999999Q922.2582009426987 366.9849999999999 922.2582009426987 383.5049999999999T919.2482009426988 409.28499999999985T910.5782009426987 422.2649999999999Q904.9082009426987 425.9849999999999 896.8882009426987 425.9849999999999M896.8882009426987 418.90499999999986Q899.7182009426988 418.90499999999986 902.3682009426988 417.30499999999984Q905.0282009426987 415.7149999999998 907.1482009426987 411.8249999999998Q909.2782009426987 407.92499999999984 910.4582009426988 401.02499999999986T911.6382009426987 383.5049999999999T910.4582009426988 365.9749999999999Q909.2782009426987 359.07499999999993 907.1482009426987 355.18499999999995Q905.0282009426987 351.28499999999997 902.3682009426988 349.69499999999994Q899.7182009426988 348.1049999999999 896.8882009426987 348.1049999999999T891.3982009426987 349.69499999999994Q888.7482009426988 351.28499999999997 886.6182009426988 355.18499999999995Q884.4982009426988 359.07499999999993 883.3182009426987 365.9749999999999Q882.1382009426987 372.8849999999999 882.1382009426987 383.5049999999999T883.3182009426987 401.02499999999986T886.6182009426988 411.8249999999998Q888.7482009426988 415.7149999999998 891.3982009426987 417.30499999999984Q894.0582009426987 418.90499999999986 896.8882009426987 418.90499999999986M947.0382009426987 424.80499999999984H936.4182009426987V342.2049999999998H947.0382009426987V382.3249999999998L970.0482009426987 342.2049999999998H982.4382009426987L958.2482009426988 382.91499999999985L984.7982009426987 424.80499999999984H972.4082009426987L947.0382009426987 383.5049999999999ZM1007.8082009426987 425.9849999999998Q1002.4982009426988 425.9849999999998 997.6582009426987 425.2149999999998T990.1082009426987 423.6249999999998V418.3149999999998H1005.4482009426987Q1015.5982009426987 418.3149999999998 1019.6682009426987 414.7149999999998T1023.7382009426988 403.5649999999998Q1023.7382009426988 398.3649999999998 1021.3182009426987 395.3549999999998Q1018.8982009426986 392.3549999999998 1015.0582009426987 390.3449999999998Q1011.2282009426988 388.3349999999998 1006.9182009426987 386.4549999999998Q1002.6182009426986 384.5649999999998 998.7782009426987 381.78499999999985Q994.9482009426988 379.0149999999999 992.5282009426987 374.41499999999985T990.1082009426987 362.2649999999999Q990.1082009426987 351.64499999999987 995.5882009426987 346.3349999999999Q1001.0782009426987 341.025 1012.5282009426987 341.025Q1017.8382009426987 341.025 1022.7282009426988 341.725Q1027.6282009426986 342.43500000000006 1030.2282009426988 343.385V348.69499999999994H1014.8882009426987Q1007.8082009426987 348.69499999999994 1004.2682009426987 352.17499999999995T1000.7282009426988 362.265Q1000.7282009426988 367.68499999999995 1003.1482009426987 370.93499999999995Q1005.5682009426987 374.17499999999995 1009.3982009426987 376.2449999999999Q1013.2382009426988 378.30499999999984 1017.5382009426987 380.2549999999999Q1021.8482009426987 382.2049999999999 1025.6782009426988 384.8549999999999Q1029.5182009426987 387.5149999999999 1031.9382009426986 391.93499999999995Q1034.3582009426987 396.3649999999999 1034.3582009426987 403.56499999999994Q1034.3582009426987 415.005 1028.3982009426986 420.4949999999999T1007.8082009426987 425.9849999999999M1057.3682009426989 424.80499999999995H1046.7482009426988V342.2049999999999H1057.3682009426989V378.78499999999997H1082.1482009426988V342.2049999999999H1092.7682009426987V424.80499999999995H1082.1482009426988V387.04499999999996H1057.3682009426989ZM1131.7082009426988 425.9849999999999Q1123.4482009426988 425.9849999999999 1118.2582009426987 423.2649999999999Q1113.0582009426987 420.55499999999984 1110.5882009426987 414.1249999999999Q1108.1082009426987 407.69499999999994 1108.1082009426987 396.4849999999999V342.2049999999999H1118.7282009426988V396.4849999999999Q1118.7282009426988 405.3349999999999 1120.2582009426987 410.16499999999985Q1121.7982009426987 415.0049999999999 1124.6882009426986 416.9549999999998T1131.7082009426986 418.90499999999986T1138.7282009426988 416.9549999999998T1143.1482009426986 410.16499999999985Q1144.6882009426986 405.3349999999998 1144.6882009426986 396.4849999999999V342.2049999999999H1155.3082009426987V396.4849999999999Q1155.3082009426987 407.69499999999994 1152.8282009426987 414.1249999999999T1145.1582009426986 423.2649999999999Q1139.9682009426986 425.9849999999999 1131.7082009426986 425.9849999999999M1189.5282009426987 425.9849999999999Q1184.2182009426988 425.9849999999999 1179.6682009426986 425.44499999999994Q1175.1282009426986 424.91499999999996 1170.6482009426986 423.6249999999999V343.3849999999999Q1175.1282009426986 342.0849999999999 1179.6682009426986 341.55499999999984Q1184.2182009426986 341.02499999999986 1189.5282009426987 341.02499999999986Q1201.9182009426986 341.02499999999986 1207.5182009426987 346.3849999999999Q1213.1282009426986 351.7549999999999 1213.1282009426986 362.8549999999999Q1213.1282009426986 368.16499999999985 1211.0582009426987 372.7649999999999Q1208.9982009426988 377.3649999999999 1203.6882009426986 380.3149999999998V380.78499999999985Q1210.7682009426987 382.79499999999985 1213.7182009426986 388.5749999999998T1216.6682009426986 402.38499999999976Q1216.6682009426986 414.77499999999975 1210.6482009426986 420.3749999999998Q1204.6282009426986 425.9849999999998 1189.5282009426987 425.9849999999998M1181.2682009426987 385.27499999999975V418.3149999999997H1189.5282009426987Q1198.3782009426986 418.3149999999997 1202.2082009426986 414.5949999999997Q1206.0482009426987 410.87499999999966 1206.0482009426987 402.38499999999965Q1206.0482009426987 393.0549999999996 1202.2082009426986 389.1649999999996Q1198.3782009426986 385.27499999999964 1189.5282009426987 385.27499999999964ZM1181.2682009426987 348.6949999999997V377.6049999999997H1188.3482009426987Q1195.4282009426988 377.6049999999997 1198.9682009426988 374.00499999999965T1202.5082009426987 362.8549999999997Q1202.5082009426987 355.77499999999964 1198.9682009426988 352.2349999999997T1188.3482009426987 348.6949999999997ZM1240.2682009426987 424.8049999999997H1229.6482009426986V342.2049999999997H1240.2682009426987V378.78499999999974H1265.0482009426987V342.2049999999997H1275.6682009426986V424.8049999999997H1265.0482009426987V387.04499999999996H1240.2682009426987Z " paint-order="stroke"></path><rect width="259.256" height="388.72" x="496.9702009426986" y="-367.115" fill="none" rx="0" ry="0" transform="translate(377.12 367.21)"></rect><path fill="#f2f2f2" d="M928.1382009426987 302.015H891.6682009426988L947.7482009426988 61.215H990.0582009426987L1015.8582009426988 225.30499999999998H1017.2282009426988L1101.1682009426988 61.214999999999975H1143.8282009426987L1115.2682009426987 302.015H1078.4682009426988L1098.4182009426986 133.80499999999998H1096.6982009426988L1026.1782009426988 272.0849999999999H990.3982009426987L968.7282009426988 133.80499999999998H967.3482009426987Z "></path></g><rect width="561" height="455" x="719.5" y="0" id="space-saver" fill="transparent" stroke="transparent"></rect></g></svg>