<?xml version="1.0" encoding="UTF-8"?>
<svg version="1.1" xmlns="http://www.w3.org/2000/svg" width="48" height="48">
<path d="M0 0 C5.25105442 -0.02464928 10.50207545 -0.04283568 15.75317383 -0.05493164 C17.54094021 -0.05997218 19.32870245 -0.06680454 21.11645508 -0.07543945 C23.68051168 -0.0875173 26.24451397 -0.09323094 28.80859375 -0.09765625 C29.6127623 -0.10281754 30.41693085 -0.10797882 31.24546814 -0.11329651 C33.16401715 -0.11349215 35.08245368 -0.06201983 37 0 C38 1 38 1 38.11352539 3.40844727 C38.10828857 4.45057373 38.10305176 5.4927002 38.09765625 6.56640625 C38.09443359 7.69111328 38.09121094 8.81582031 38.08789062 9.97460938 C38.07532227 11.75061523 38.07532227 11.75061523 38.0625 13.5625 C38.05798828 14.75037109 38.05347656 15.93824219 38.04882812 17.16210938 C38.03699675 20.10812226 38.02051287 23.05403681 38 26 C32.74894558 26.02464928 27.49792455 26.04283568 22.24682617 26.05493164 C20.45905979 26.05997218 18.67129755 26.06680454 16.88354492 26.07543945 C14.31948832 26.0875173 11.75548603 26.09323094 9.19140625 26.09765625 C7.98515343 26.10539818 7.98515343 26.10539818 6.75453186 26.11329651 C4.83598285 26.11349215 2.91754632 26.06201983 1 26 C0 25 0 25 -0.11352539 22.59155273 C-0.10828857 21.54942627 -0.10305176 20.5072998 -0.09765625 19.43359375 C-0.09443359 18.30888672 -0.09121094 17.18417969 -0.08789062 16.02539062 C-0.07951172 14.84138672 -0.07113281 13.65738281 -0.0625 12.4375 C-0.05798828 11.24962891 -0.05347656 10.06175781 -0.04882812 8.83789062 C-0.03699675 5.89187774 -0.02051287 2.94596319 0 0 Z M14 7 C14 10.96 14 14.92 14 19 C17.3 17.35 20.6 15.7 24 14 C24 13.34 24 12.68 24 12 C20.7 10.35 17.4 8.7 14 7 Z " fill="#FFFFFF" transform="translate(5,18)"/>
<path d="M0 0 C10.23 0 20.46 0 31 0 C31.33 1.65 31.66 3.3 32 5 C21.44 4.67 10.88 4.34 0 4 C0 2.68 0 1.36 0 0 Z " fill="#FFFFFF" transform="translate(8,11)"/>
<path d="M0 0 C8.25 0 16.5 0 25 0 C25.33 1.65 25.66 3.3 26 5 C13.13 4.505 13.13 4.505 0 4 C0 2.68 0 1.36 0 0 Z " fill="#FFFFFF" transform="translate(11,4)"/>
</svg>